# xmcd
#
# Track frame offsets: 
#        150
#        17915
#        30030
#        42300
#        54317
#        67690
#        82260
#        96817
#        109602
#        135142
#        142460
#        155497
#
# Disc length: 2212 seconds
#
# Revision: 8
# Processed by: cddbd v1.5.2PL0 Copyright (c) Steve Scherf et al.
# Submitted via: ExactAudioCopyFreeDBPlugin 1.0
#
DISCID=9308a20c
DTITLE=Fleetwood Mac - The Pious Bird of Good Omen - Original Album Cl
DTITLE=assics -
DYEAR=1969
DGENRE=Blues
TTITLE0=Need Your Love So Bad
TTITLE1=Comin' Home
TTITLE2=Rambling Pony
TTITLE3=The Big Boat (with Eddie Boyd)
TTITLE4=I Believe My Time Ain't Long
TTITLE5=The Sun Is Shining
TTITLE6=Albatross
TTITLE7=Black Magic Woman
TTITLE8=Just the Blues (with Eddie Boyd)
TTITLE9=Jigsaw Puzzle Blues
TTITLE10=Looking For Somebody
TTITLE11=Stop Messin' Round
EXTD=
EXTT0=
EXTT1=
EXTT2=
EXTT3=
EXTT4=
EXTT5=
EXTT6=
EXTT7=
EXTT8=
EXTT9=
EXTT10=
EXTT11=
PLAYORDER=
